<svg width="20" height="20" viewBox="0 0 20 20" fill="none" xmlns="http://www.w3.org/2000/svg">
<path d="M2.5 9.45666C2.5 8.2223 3.06989 7.05708 4.04424 6.29925L7.54424 3.57703C8.98868 2.45357 11.0113 2.45357 12.4558 3.57703L15.9558 6.29925C16.9301 7.05708 17.5 8.2223 17.5 9.45666V16.667C17.5 17.109 17.3244 17.5329 17.0118 17.8455C16.6993 18.1581 16.2754 18.3337 15.8333 18.3337H4.16667C3.72464 18.3337 3.30072 18.1581 2.98816 17.8455C2.67559 17.5329 2.5 17.109 2.5 16.667V9.45666Z" stroke="#354A4D" stroke-width="2" stroke-linecap="round" stroke-linejoin="round"/>
<path d="M7.5 18.1663V10.833C7.5 10.2807 7.94772 9.83301 8.5 9.83301H11.5C12.0523 9.83301 12.5 10.2807 12.5 10.833V18.1663" stroke="#354A4D" stroke-width="2" stroke-linecap="round" stroke-linejoin="round"/>
</svg>
