<svg width="18" height="18" viewBox="0 0 18 18" fill="none" xmlns="http://www.w3.org/2000/svg">
<path d="M16.5816 16.5816C16.8127 16.3505 16.8127 15.9759 16.5816 15.7448L13.1763 12.3394C12.8106 11.9738 12.7918 11.3934 13.0641 10.9537C13.7785 9.80028 14.1194 8.4452 14.026 7.07649C13.9117 5.40231 13.1564 3.83663 11.9171 2.70516C10.6778 1.5737 9.05008 0.963565 7.37243 1.00168C5.69478 1.0398 4.09641 1.72324 2.90983 2.90983C1.72324 4.09641 1.0398 5.69478 1.00168 7.37243C0.963565 9.05008 1.5737 10.6778 2.70516 11.9171C3.83663 13.1564 5.40231 13.9117 7.07649 14.026C8.4452 14.1194 9.80028 13.7785 10.9537 13.0641C11.3934 12.7918 11.9738 12.8106 12.3394 13.1763L15.7448 16.5816C15.9759 16.8127 16.3505 16.8127 16.5816 16.5816ZM2.20478 7.53106C2.20478 6.47762 2.51716 5.44784 3.10242 4.57194C3.68768 3.69604 4.51953 3.01335 5.49278 2.61022C6.46603 2.20709 7.53697 2.10161 8.57017 2.30712C9.60336 2.51264 10.5524 3.01992 11.2973 3.76481C12.0422 4.50971 12.5495 5.45876 12.755 6.49195C12.9605 7.52515 12.855 8.59609 12.4519 9.56934C12.0488 10.5426 11.3661 11.3744 10.4902 11.9597C9.61428 12.545 8.5845 12.8573 7.53106 12.8573C6.11892 12.8558 4.76507 12.2941 3.76654 11.2956C2.76801 10.297 2.20635 8.9432 2.20478 7.53106Z" fill="#354A4D" stroke="#354A4D"/>
</svg>
